<?xml version="1.0" encoding="UTF-8"?><svg xmlns="http://www.w3.org/2000/svg" viewBox="0 0 1080 1080"><defs><style>.d{fill:#fff;}.e{fill:#730000;}</style></defs><g id="a"><rect class="e" width="1080" height="1080"/></g><g id="b"><g><path class="d" d="M184.66,715.92v108.15h-34.25v-172.8c12.8,0,25.77-.28,38.7,.3,1.94,.09,4.25,3.94,5.46,6.48,15.19,31.73,30.21,63.54,45.81,96.44,5.96-12.42,11.63-24.07,17.15-35.78,9.55-20.29,19.18-40.55,28.39-61,2.16-4.79,4.53-6.88,10.03-6.64,11.07,.49,22.18,.14,34.03,.14v173.01h-33.32v-109.46c-.49-.12-.98-.25-1.47-.37-7.78,15.61-15.58,31.2-23.33,46.82-5.68,11.44-11.69,22.73-16.79,34.43-2.69,6.16-6.28,7.66-12.83,8.14-10.08,.74-14.87-2.92-18.99-11.99-11.7-25.74-24.58-50.93-37-76.34-.53,.16-1.06,.31-1.59,.47Z"/><path class="d" d="M184.74,905.42v108.09h-33.79v-170.3c12.16,0,24.06-.35,35.91,.3,2.33,.13,5.22,3.72,6.53,6.37,14.34,29.02,28.41,58.17,42.56,87.29,.96,1.97,1.93,3.93,3.54,7.2,5.54-11.14,10.5-21.17,15.52-31.18,10.69-21.32,21.52-42.58,32.02-64,2.17-4.44,4.75-6.27,9.78-6.09,10.72,.38,21.47,.12,32.63,.12v170.31h-33.67v-109.94c-2.33,3.98-3.49,5.72-4.42,7.56-12.74,25.39-25.79,50.63-37.97,76.29-4.28,9.02-11.37,4.94-17.48,6.04-5.45,.98-8-1.77-10.23-6.45-13.02-27.36-26.32-54.59-39.53-81.86-.47,.08-.93,.17-1.4,.25Z"/><path class="d" d="M717.64,1013.61h-33.56v-107.24c-.55-.13-1.1-.25-1.66-.38-7.43,15.16-14.85,30.31-22.29,45.47-6.01,12.24-12.45,24.29-17.87,36.79-2.51,5.78-6.58,5.57-11.01,5.08-5.38-.59-11.64,2.85-15.37-5.1-12.9-27.5-26.41-54.72-40.49-83.67v108.76h-34.65v-170.12c11.99,0,23.86-.36,35.67,.32,2.26,.13,4.96,4.05,6.32,6.78,15.42,30.97,30.61,62.05,46.45,94.28,7.71-16.1,15.03-31.33,22.29-46.59,7.8-16.41,15.69-32.78,23.21-49.32,1.94-4.27,4.29-5.8,9.01-5.63,11.07,.39,22.16,.13,33.94,.13v170.45Z"/><path class="d" d="M929.59,932.07c-.06,51.84-37.61,89.18-89.55,89.05-49.02-.11-88.08-39.5-88.06-88.79,.02-50.52,38.81-89.13,89.41-89,50.71,.13,88.27,37.91,88.2,88.74Zm-37.19,.05c-.76-5.67-1.26-11.05-2.22-16.33-4.21-23.08-21.45-37.67-45.94-39.04-24.2-1.36-45.57,11.92-50.84,34.02-2.82,11.84-3.32,24.84-1.91,36.97,2.79,24,21.95,39.56,47.26,40.76,25.37,1.2,44.94-12.68,50.68-36.39,1.59-6.58,2.03-13.44,2.97-19.98Z"/><path class="d" d="M774.68,774.38h32.98c10.76,19.73,22.59,25.55,44.65,22.03,9.97-1.6,16.81-7.8,18.21-16.53,1.35-8.46-2.78-15.83-12.83-19.7-10.29-3.96-21.16-6.4-31.64-9.9-7.51-2.51-15.06-5.13-22.15-8.61-35.69-17.47-33.37-63.22-5.09-83.05,23.77-16.67,63.26-15.31,85.46,3.48,11.07,9.37,16.98,21.59,18.04,36.64h-33.61c-8.31-17.72-24.58-24.91-41.77-18.55-7.31,2.71-11.94,7.7-12.72,15.58-.71,7.23,2.41,13.17,8.67,16.32,7.29,3.66,15.11,6.34,22.85,9.02,9.11,3.15,18.53,5.43,27.54,8.83,19.63,7.39,32.74,20.27,33.59,42.58,.83,21.98-10.63,40.96-31.89,49.94-25.32,10.7-50.59,9.32-74.48-4.67-16.04-9.39-23.96-23.36-25.81-43.41Z"/><path class="d" d="M379.57,824.34v-172.75h110.13v31.91h-74.57v38.58h66.27v31.3h-66.73v39.09h77.5v31.87h-112.6Z"/><path class="d" d="M488.18,843.33v31.09h-72.5v38.08h66.14v31.24h-66.13v37.54h74.78v32.02h-109.2v-169.96h106.9Z"/><path class="d" d="M574.42,683.32h-50.19v-31.62h136.79v31.36h-50.8v141.41h-35.79v-141.15Z"/><path class="d" d="M735.74,824.89c-3.27,0-5.8,0-8.32,0-9.07,0-18.14,0-27.89,0v-173.31h36.2v173.31Z"/></g></g><g id="c"><g><path class="d" d="M560.44,426.19c-3.73,17.91,3.67,32.89,14.98,46.83,3.9,4.81,6.69,10.54,9.78,15.97,2.73,4.79,1.83,9.25-1.67,13.43-2.47,2.95-4.67,6.11-6.96,9.2-10.03,13.48-10.58,27.61-2.39,42.03,4.69,8.25,9.92,16.19,15.27,24.88-48.93,13.02-91.84,39.8-140.34,57.44,1.33-2.83,1.64-3.95,2.3-4.81,11.45-14.95,12.65-31.76,9.78-49.64-2.34-14.57-3.58-29.31-5.59-43.94-.74-5.4,.98-8.36,5.97-10.86,15.51-7.76,27.88-19.29,37.68-33.58,.45-.65,.81-1.37,1.17-2.08,.05-.1-.16-.32-.5-.94-13.9,11.98-29.43,21.07-46.67,27.19-21.48,7.62-43.65,11.91-66.35,13.33-16.02,1-29.33-7.46-31.41-20.67-.82-5.22,.87-11.12,2.48-16.39,3.27-10.73,3.09-11.51-6.16-18.47-1.68-1.26-3.22-4.96-2.54-6.59,1.08-2.59,3.75-5.48,6.34-6.24,3.29-.97,7.18,.04,10.8,.21,4.77,.22,9.37,.12,11.42-6.11-1.6-.32-2.88-.73-4.18-.79-1.19-.05-2.55,.7-3.59,.36-7.2-2.37-14.2-2.84-21.92-1.55-5.88,.98-8.1-4.84-4.68-10.03,4.02-6.1,1.44-13.34-5.65-15.33-3.49-.98-7.14-1.37-10.66-2.25-12.16-3.02-15.45-9.47-11.16-21.05,7.43-20.07,15.15-40.05,21.81-60.38,2.77-8.47,3.48-17.69,4.47-26.65,1.76-16.01,3.02-32.07,4.59-49.22,7.03,2.83,12.52,4.69,17.7,7.2,25.06,12.17,50.1,24.38,74.94,36.98,3.45,1.75,6.52,5.36,8.43,8.85,7.53,13.73,15.02,27.34,28.26,36.67,16.45,11.6,33.79,12.23,50.37,1.35,2.82-1.85,5.17-4.49,7.54-6.95,11.51-11.96,27.61-8.62,32.05,7.39,1.93,6.95,2.36,14.91,1.13,22.01-2.36,13.7-8.93,25.97-17.22,37.09-10.21,13.7-18.32,14.26-30.86,2.77-1.92,14.67,10.07,23.58,22.81,17.49,6.78-3.24,12.22-9.27,18.42-14.16Zm-35.53-29.18c3.93,9.9,14.53,12.4,21.71,4.57,6.77-7.39,9-16.74,9.38-26.8-3.57-.27-7.34,4.4-9.57-1.52-2.08-5.52-.53-9.03,7.44-14.94-4.57-3.48-6.94-3.93-11.44-2.16-6.57,2.58-8.19,6.99-6.62,17.99q2.26,15.85-10.9,22.86Zm-103.03-67.62c-.98-1.34-1.22-1.91-1.65-2.21-16.48-11.53-34.78-15.86-54.62-13.22-3.16,.42-6.47,2.35-8.9,4.49-1.45,1.28-2.1,4.53-1.61,6.53,.27,1.1,3.58,1.8,5.59,2.05,2.17,.28,4.43-.21,6.66-.29,10.26-.35,20.54-1.2,30.77-.83,7.59,.27,15.13,2.15,23.76,3.48Zm-10.28,22.15c-14.92-10.42-39.73-17.24-47.05-13.72,2.09,1.44,3.64,3.2,5.5,3.64,4.13,.98,5.27,3.32,5.5,7.32,.25,4.17,1.26,8.38,2.59,12.36,.5,1.49,2.75,3.07,4.37,3.27,1.1,.13,3.06-1.84,3.62-3.27,1.29-3.31,1.96-6.87,2.93-10.48,3.86,.57,7.61,1.44,11.38,1.59,3.7,.15,7.44-.44,11.16-.7Zm-77.5,69.77c6.19,2.57,11.81,5.02,17.52,7.23,5.06,1.96,10.65-.29,12.57-5.22,1.63-4.18,1.58-8.26-2.77-11.86-2.47,12.59-2.8,12.72-14.04,8.4-4.62-1.78-9.32-2.84-13.28,1.45Z"/><path class="d" d="M741.7,450.7c-17.02-15.57-21.5-34.49-19.02-54.94,2.53-20.83,6.94-41.43,10.44-62.15,13.04-77.12-22.97-156.26-90.79-195.19-69.36-39.81-140.72-42.27-212.84-6.63-2.89,1.43-5.64,3.14-8.01,4.46-11.08-8.39-21.93-16.6-33.91-25.67,16.03-7.76,31.52-16.55,47.93-22.99,88.22-34.66,171.43-24.52,246.89,32.79,44.14,33.52,69.36,79.75,77.39,135.08,5.27,36.32-.98,71.34-10.39,106.11-5.98,22.11-11.72,44.25-10.43,67.43,.38,6.82,1.69,13.58,2.74,21.69Z"/><path class="d" d="M783.6,488.72c-10.97-5.75-23.04-9.59-28.09-23.28-8.51-23.07-8.7-46.48-3.81-69.98,4.89-23.51,11.73-46.61,16.47-70.15,12.97-64.41-2.32-122.59-41.92-174.18-34.72-45.22-80.42-74.49-136.14-87.36-28.08-6.48-56.53-6.79-85.13-3.51-45.46,5.2-86.87,21.35-125.47,45.39-1.27,.79-3.11,1.69-4.34,1.34-6.87-1.98-13.64-4.32-21.63-6.93,26.86-20.57,54.53-35.92,84.86-46.02,76.62-25.51,151.94-23.93,223.83,15.24,68.38,37.26,111.18,94.43,126.2,171.45,7.41,38,3.45,75.27-7.3,112.18-5.02,17.24-9.36,34.71-13.11,52.27-6.36,29.77-.17,57.36,15.57,83.53Z"/><path class="d" d="M375.89,198.56c26.6-37.94,63.82-62.2,109.76-72.63,59.47-13.5,115.37-4.04,165.09,31.73,42.21,30.37,64.96,72.51,68.94,124.82,2.84,37.29-6.57,71.7-21.76,105.08-.24,.53-.71,.95-1.87,2.46-8.19-6.08-16.34-12.13-24.71-18.34,11.87-18.09,19.94-36.58,24.43-56.77,16.24-72.97-27.65-148.71-98.17-167.06-38.48-10.01-75.19-5.13-107.65,19.59-20.2,15.38-32.71,36.05-39.24,60.47-.92,3.46-2.2,6.82-3.15,9.72-24.05-13.11-47.68-26-71.67-39.08Z"/><path class="d" d="M633.23,307.36c14.04-8.19,27.52-4.58,31.99,8.73,2.55,7.61,1.52,14.91-4.44,20.77-5.84,5.75-12.87,7.54-20.66,4.7-7.73-2.82-11.8-8.62-13.27-16.69-.43-2.38-1.92-5.23-3.83-6.57-10.94-7.65-22.08-15.02-33.36-22.17-1.81-1.14-4.92-1.46-6.98-.79-15.6,5.1-28.5-3.92-28.74-20.17-.03-1.9-.92-4.41-2.3-5.57-10.58-8.81-21.25-17.52-32.24-25.81-1.64-1.24-5.15-.61-7.61-.03-8.49,1.99-17.51-1.51-22.09-8.97-4.5-7.33-3.62-17.34,2.07-23.74,5.36-6.02,13.46-8.15,20.99-5.5,7.73,2.72,13.57,9.71,13.13,17.83-.3,5.52,2.09,8.37,5.9,11.34,9.74,7.6,19.26,15.47,28.95,23.14,1.11,.88,3.47,2,3.9,1.6,1.1-1.06,1.98-2.89,2.01-4.43,.19-12.77,.3-25.54,.03-38.3-.04-1.84-1.93-4.08-3.56-5.37-8.14-6.41-10.98-16.46-6.85-25.46,4.08-8.9,13.51-13.46,23.16-11.03,8.05,2.03,13,7.43,14.61,15.37,1.64,8.13-.34,15.59-7.64,20.27-3.62,2.32-4.53,4.85-4.45,8.8,.22,10.94,.32,21.9-.02,32.83-.15,4.8,.83,8.23,6.03,9.64,11.59-6.28,23.56-12.63,35.34-19.3,1.71-.97,3.25-3.38,3.63-5.36,2.07-10.78,10.16-17.64,20.86-17.21,9.89,.4,17.93,8.53,18.7,18.91,.75,10.06-6.12,19.39-16.5,20.6-4.44,.52-9.45-1.27-13.75-3.09-2.68-1.13-4.35-1.58-7-.1-10.58,5.92-21.35,11.51-32.01,17.3-4.92,2.67-5.02,6.28-.19,9.55,11.89,8.06,23.86,16.02,36.19,24.28Z"/><path class="d" d="M521.77,290.66c-9.76,8.28-19.59,9.23-30.32,6.64-16.2-3.91-29.3-13.29-42.06-23.33-2.07-1.63-3.89-3.72-6.2-4.83-1.59-.77-3.82-.21-5.76-.24,.04,2.15-.82,5.11,.27,6.3,4.08,4.47,8.68,8.48,13.28,12.44,17.15,14.75,36.97,22.81,59.68,23.65,7.86,.29,15.71,.96,24.56,1.53-12.36,10.04-25.8,14.11-40.81,12.43-14.29-1.6-27.66-6.72-39.52-14.52-40.81-26.87-85.81-44.84-130.83-62.86-2.43-.97-4.85-1.99-7.25-3.03-.34-.15-.56-.56-1.02-1.05,10.65-13.92,21.33-27.86,32.56-42.54,9.31,3.89,18.91,7.48,28.14,11.83,34.44,16.23,68.06,33.83,97.65,58.25,13.42,11.07,28.23,19.38,47.62,19.33Zm-183.3-62.18c.61,.86,1.35,2.95,2.78,3.7,4.27,2.23,8.71,4.33,13.32,5.61,1.53,.42,4.96-1.43,5.43-2.91,.58-1.83-.33-5.38-1.81-6.37-3.8-2.54-8.2-4.26-12.5-5.96-4.42-1.75-6.3,.8-7.22,5.93Zm70.45,22.43c-1.42,2.03-3.12,3.58-3.62,5.45-.48,1.82-.45,5.09,.61,5.77,4.04,2.58,8.47,4.72,13.01,6.24,1.34,.45,4.02-1.27,5.19-2.72,1.02-1.26,1.61-4.77,.99-5.18-4.98-3.33-10.29-6.17-16.18-9.55Zm-31.96-15.02c-1.7,1.99-3.8,3.62-4.65,5.75-.48,1.2,.59,4.01,1.79,4.73,4.09,2.48,8.43,4.69,12.93,6.26,1.33,.47,4.21-1.06,5.11-2.48,.94-1.49,1.18-5.19,.3-5.77-4.63-3.06-9.71-5.43-15.49-8.49Z"/><path class="d" d="M604.12,387.26c-1.45,10.18-2.88,20.37-4.36,30.54-2.22,15.28,1.1,28.98,11.72,40.49,5.21,5.65,10.7,11.06,16.05,16.59,12.28,12.68,15.12,27.01,8.16,43.43-5.54,13.07-3.61,21.24,6.45,31.29,3.72,3.72,7.62,7.32,10.96,11.37,11.37,13.79,9.68,30.56-4.29,41.67-3.81,3.03-8.31,5.2-13.47,6.7,1.82-3.27,3.64-6.54,5.45-9.82,6.41-11.58,5.22-22.57-2.94-32.74-3.28-4.09-7.15-7.72-10.8-11.51-11.24-11.65-15.34-24.85-9.12-40.48,4.4-11.05,2.11-21.15-5.41-29.99-6.95-8.17-14.57-15.77-21.5-23.96-12.38-14.64-13.81-29.18-4.75-46.02,5.12-9.51,10.56-18.85,15.85-28.26l1.99,.7Z"/><path class="d" d="M677.51,603.35c2.66-5.87,4.82-10.18,6.58-14.64,4.51-11.41,2.25-20.82-6.97-28.94-3.49-3.07-7.29-5.78-10.98-8.62-11.23-8.64-16.07-20.08-10.38-33.15,8.53-19.62,1.06-33.95-12.49-47.18-1.88-1.84-3.64-3.83-5.66-5.5-17.14-14.14-21.13-32.21-15.9-53.02,1.55-6.15,3.35-12.24,5.03-18.35,.59,.07,1.18,.13,1.77,.2,.31,1.46,.8,2.9,.89,4.37,.46,7.68,.99,15.37,1.16,23.06,.25,11.65,4.92,21.14,13.64,28.65,4.6,3.96,9.38,7.72,14.3,11.27,19.83,14.29,24.33,27.84,16.74,50.97q-7.23,22.03,10.91,35.55c20.68,15.41,19.97,37.18-1.67,51.02-1.87,1.2-3.77,2.34-6.97,4.32Z"/><path class="d" d="M728.11,570.93c2.86-15.65-4.49-26.67-15.62-35.99-10.87-9.09-13.96-19.83-9.02-33.54,4.59-12.77,1.23-24.61-7.13-35.23-5.37-6.82-11.1-13.56-15.23-21.12-6.58-12.03-9.22-24.71-.05-37.06,.23-.31,.6-.51,1.15-.96,1.77,6.98,3.25,13.91,5.3,20.66,2.66,8.79,7.96,15.52,15.7,20.85,9.29,6.4,17.49,14.43,18.76,26.38,.62,5.77-.86,11.88-2.1,17.69-.78,3.68-2.93,7.07-4.37,10.62-3.65,9.04-2.15,17.01,5.02,23.78,1.62,1.53,3.17,3.13,4.75,4.7,13.45,13.38,14.34,23.16,2.84,39.22Z"/><path class="d" d="M580.09,388.31c-.58-8.97-.31-17.78-1.85-26.25-4.56-25.11-26.84-34.02-47.82-19.56-21.28,14.67-39.54,13.26-58.61-4.37-3.55-3.28-7.44-6.19-11.17-9.27,.55-.67,1.09-1.34,1.64-2.01,5.03,1.85,10.05,3.74,15.1,5.54,18.45,6.56,36.79,6.48,55.01-.96,3.36-1.37,6.91-2.32,10.15-3.93,17.29-8.6,39.95,.02,44.26,25.67,2.03,12.08-.25,23.54-6.71,35.16Z"/><path class="d" d="M602.34,494.73c3.69,7.53,4.41,15.52,1.6,23.46-5.78,16.33-2.61,30.44,8.95,43.24,3.98,4.41,6.73,9.95,9.93,15.04,.45,.72,.25,1.84,.44,3.68-9.3-8.19-18.33-15.39-26.47-23.48-11.16-11.11-12.9-24.27-6.07-38.4,3.76-7.78,7.64-15.49,11.62-23.53Z"/><path class="d" d="M674.58,457.36c-23.64-10.76-32.3-38.99-19.34-64.31,1.87,23.66,7.11,44.99,19.34,64.31Z"/></g></g></svg>